<svg id="Line_Circular" enable-background="new 0 0 50 50" viewBox="0 0 50 50" xmlns="http://www.w3.org/2000/svg"><g><path d="m32.8 11.05v3.95h3.95z"/><path d="m32.8 24h-20.4v9.6h20.4zm-16.2 7.2c.66 0 1.2-.54 1.2-1.2 0-.33.27-.6.6-.6s.6.27.6.6c0 1.32-1.08 2.4-2.4 2.4s-2.4-1.08-2.4-2.4v-2.4c0-1.32 1.08-2.4 2.4-2.4s2.4 1.08 2.4 2.4c0 .33-.27.6-.6.6s-.6-.27-.6-.6c0-.66-.54-1.2-1.2-1.2s-1.2.54-1.2 1.2v2.4c0 .66.54 1.2 1.2 1.2zm6.3 1.2c-.71 0-1.39-.21-1.98-.6l-.15-.1c-.28-.18-.35-.56-.17-.83.18-.28.56-.35.83-.17l.15.1c.39.26.85.4 1.32.4.5 0 .9-.4.9-.9s-.4-.9-.9-.9h-.3-.3c-1.16 0-2.1-.94-2.1-2.1s.94-2.1 2.1-2.1c.71 0 1.39.21 1.98.6l.15.1c.28.18.35.56.17.83s-.56.35-.83.17l-.15-.1c-.39-.26-.85-.4-1.32-.4-.5 0-.9.4-.9.9s.4.9.9.9h.3.3c1.16 0 2.1.94 2.1 2.1s-.94 2.1-2.1 2.1zm6 0c-.71 0-1.39-.21-1.98-.6l-.15-.1c-.28-.18-.35-.56-.17-.83.18-.28.56-.35.83-.17l.15.1c.39.26.85.4 1.32.4.5 0 .9-.4.9-.9s-.4-.9-.9-.9h-.3-.3c-1.16 0-2.1-.94-2.1-2.1s.94-2.1 2.1-2.1c.71 0 1.39.21 1.98.6l.15.1c.28.18.35.56.17.83s-.56.35-.83.17l-.15-.1c-.39-.26-.85-.4-1.32-.4-.5 0-.9.4-.9.9s.4.9.9.9h.3.3c1.16 0 2.1.94 2.1 2.1s-.94 2.1-2.1 2.1z"/><path d="m25 0c-13.81 0-25 11.19-25 25s11.19 25 25 25 25-11.19 25-25-11.19-25-25-25zm13.8 38.4c0 .33-.27.6-.6.6h-21.6c-.33 0-.6-.27-.6-.6v-3.6h-4.2c-.33 0-.6-.27-.6-.6v-10.8c0-.33.27-.6.6-.6h4.2v-13.2c0-.33.27-.6.6-.6h15.6c.16 0 .31.06.42.18l6 6c.11.11.18.27.18.42z"/><path d="m31.6 15.6v-5.4h-14.4v12.6h16.2c.33 0 .6.27.6.6v10.8c0 .33-.27.6-.6.6h-16.2v3h20.4v-21.6h-5.4c-.33 0-.6-.27-.6-.6zm-6.6-.6h-6c-.33 0-.6-.27-.6-.6s.27-.6.6-.6h6c.33 0 .6.27.6.6s-.27.6-.6.6zm0-2.4h-6c-.33 0-.6-.27-.6-.6s.27-.6.6-.6h6c.33 0 .6.27.6.6s-.27.6-.6.6z"/></g></svg>