<svg id="glipy2_copy_2" height="512" viewBox="0 0 64 64" width="512" xmlns="http://www.w3.org/2000/svg" data-name="glipy2 copy 2"><path d="m32 2a30 30 0 1 0 30 30 30.03661 30.03661 0 0 0 -30-30zm.36 10.41 10.6 10.61h-9.72a.86066.86066 0 0 1 -.88-.84zm11.03 37.5a2.10411 2.10411 0 0 1 -2.1 2.09h-24.8a2.1041 2.1041 0 0 1 -2.1-2.09v-35.82a2.10409 2.10409 0 0 1 2.1-2.09h14.44v10.19a2.28158 2.28158 0 0 0 2.31 2.26h10.15v5.41h-18.07a4.28487 4.28487 0 0 0 -4.28 4.28v10a4.29343 4.29343 0 0 0 4.28 4.29h18.07zm6.22-5.77a2.86582 2.86582 0 0 1 -2.86 2.86h-21.43a2.8594 2.8594 0 0 1 -2.86-2.86v-10a2.85089 2.85089 0 0 1 2.86-2.85h21.43a2.85728 2.85728 0 0 1 2.86 2.85z"/><path d="m46.75 32.71h-21.43a1.43619 1.43619 0 0 0 -1.43 1.43v10a1.42973 1.42973 0 0 0 1.43 1.43h21.43a1.42972 1.42972 0 0 0 1.43-1.43v-10a1.43618 1.43618 0 0 0 -1.43-1.43zm-16.75 9.6a.71507.71507 0 0 1 -1.43 0v-2.45h-2.54v2.45a.7151.7151 0 0 1 -1.43005 0v-6.34a.71525.71525 0 0 1 1.43005 0v2.46h2.54v-2.46a.715.715 0 0 1 1.43 0zm5.03-5.62h-1.27v5.62a.715.715 0 1 1 -1.43 0v-5.62h-1.27a.71521.71521 0 0 1 0-1.43h3.97a.71521.71521 0 0 1 0 1.43zm6.47 5.62a.71507.71507 0 0 1 -1.43 0v-3.85c-.37.5-.67 1.44-1.27 1.4-.6.03-.89-.9-1.27-1.4v3.85a.71.71 0 0 1 -1.42 0v-6.34a.71788.71788 0 0 1 1.32-.38l1.37 2.21 1.38-2.21a.70762.70762 0 0 1 .8-.3.69659.69659 0 0 1 .52.68zm5.25.72h-2.65a2.19114 2.19114 0 0 1 -2.03-2.32v-4.74a.715.715 0 0 1 1.43 0v4.74c0 .47.28.89.6.89h2.65a.71521.71521 0 0 1 0 1.43z"/></svg>