<svg height="512" viewBox="0 0 32 32" width="512" xmlns="http://www.w3.org/2000/svg"><g id="Glyph"><g><g><path d="m16 3.006c-7.165 0-12.993 5.829-12.993 12.994s5.829 12.994 12.993 12.994 12.994-5.829 12.994-12.994-5.829-12.994-12.994-12.994zm1.953 15.825c.319.276.566 1.251.566 1.699v3.964h-2.262-2.265s.006-1.344 0-2.265c-3.099.667-3.964-1.699-3.964-1.699-.566-1.132-1.132-1.699-1.132-1.699-1.132-.673 0-.566 0-.566 1.132 0 1.699 1.132 1.699 1.132.994 1.687 2.762 1.416 3.397 1.132 0-.566.248-1.422.566-1.699-2.473-.279-4.532-1.699-4.532-4.53s.568-3.397 1.135-3.964c-.114-.279-.588-1.311.018-2.831 0 0 1.113 0 2.245 1.699.561-.561 2.265-.566 2.832-.566.565 0 2.269.005 2.83.566 1.132-1.699 2.248-1.699 2.248-1.699.605 1.52.132 2.552.017 2.831.566.566 1.132 1.132 1.132 3.964s-2.056 4.253-4.53 4.531z" fill="#1a1718"/></g><g><path d="m16 0c-8.837 0-16 7.163-16 16s7.164 16 16 16c8.837 0 16-7.163 16-16s-7.163-16-16-16zm0 29.493c-7.452 0-13.493-6.041-13.493-13.493s6.041-13.494 13.493-13.494c7.453 0 13.494 6.041 13.494 13.493 0 7.453-6.042 13.494-13.494 13.494z" fill="#1a1718"/></g></g></g></svg>